HIERARCHY
ROOT Hips
{
	OFFSET -0.001795 -0.223333 0.028219
	CHANNELS 6 Xposition Yposition Zposition Zrotation Yrotation Xrotation 
	JOINT LeftUpLeg
	{
		OFFSET 0.069520 -0.091406 -0.006815
		CHANNELS 3 Zrotation Yrotation Xrotation
		JOINT LeftLeg
		{
			OFFSET 0.034277 -0.375199 -0.004496
			CHANNELS 3 Zrotation Yrotation Xrotation
			JOINT LeftFoot
			{
				OFFSET -0.013596 -0.397961 -0.043693
				CHANNELS 3 Zrotation Yrotation Xrotation
				JOINT LeftToe
				{
					OFFSET 0.026358 -0.055791 0.119288
					CHANNELS 3 Zrotation Yrotation Xrotation
					End Site
					{
						OFFSET 0.000000 0.000000 0.000000
					}
				}
			}
		}
	}
	JOINT RightUpLeg
	{
		OFFSET -0.067670 -0.090522 -0.004320
		CHANNELS 3 Zrotation Yrotation Xrotation
		JOINT RightLeg
		{
			OFFSET -0.038290 -0.382569 -0.008850
			CHANNELS 3 Zrotation Yrotation Xrotation
			JOINT RightFoot
			{
				OFFSET 0.015774 -0.398415 -0.042312
				CHANNELS 3 Zrotation Yrotation Xrotation
				JOINT RightToe
				{
					OFFSET -0.025372 -0.048144 0.123348
					CHANNELS 3 Zrotation Yrotation Xrotation
					End Site
					{
						OFFSET 0.000000 0.000000 0.000000
					}
				}
			}
		}
	}
	JOINT Spine
	{
		OFFSET -0.002533 0.108963 -0.026696
		CHANNELS 3 Zrotation Yrotation Xrotation
		JOINT Spine1
		{
			OFFSET 0.005487 0.135180 0.001092
			CHANNELS 3 Zrotation Yrotation Xrotation
			JOINT Spine2
			{
				OFFSET 0.001457 0.052922 0.025425
				CHANNELS 3 Zrotation Yrotation Xrotation
				JOINT Neck
				{
					OFFSET -0.002778 0.213870 -0.042857
					CHANNELS 3 Zrotation Yrotation Xrotation
					JOINT Head
					{
						OFFSET 0.005152 0.064970 0.051349
						CHANNELS 3 Zrotation Yrotation Xrotation
						End Site
						{
							OFFSET 0.000000 0.000000 0.000000
						}
					}
				}
				JOINT LeftShoulder
				{
					OFFSET 0.078845 0.121749 -0.034090
					CHANNELS 3 Zrotation Yrotation Xrotation
					JOINT LeftArm
					{
						OFFSET 0.090977 0.030469 -0.008868
						CHANNELS 3 Zrotation Yrotation Xrotation
						JOINT LeftForeArm
						{
							OFFSET 0.259612 -0.012772 -0.027456
							CHANNELS 3 Zrotation Yrotation Xrotation
							JOINT LeftHand
							{
								OFFSET 0.249234 0.008986 -0.001171
								CHANNELS 3 Zrotation Yrotation Xrotation
								End Site
								{
									OFFSET 0.000000 0.000000 0.000000
								}
							}
						}
					}
				}
				JOINT RightShoulder
				{
					OFFSET -0.081759 0.118833 -0.038615
					CHANNELS 3 Zrotation Yrotation Xrotation
					JOINT RightArm
					{
						OFFSET -0.096012 0.032551 -0.009143
						CHANNELS 3 Zrotation Yrotation Xrotation
						JOINT RightForeArm
						{
							OFFSET -0.253742 -0.013329 -0.021401
							CHANNELS 3 Zrotation Yrotation Xrotation
							JOINT RightHand
							{
								OFFSET -0.255298 0.007772 -0.005559
								CHANNELS 3 Zrotation Yrotation Xrotation
								End Site
								{
									OFFSET 0.000000 0.000000 0.000000
								}
							}
						}
					}
				}
			}
		}
	}
}
MOTION
Frames: 11
Frame Time: 0.050000
0.000000 0.931942 0.000000 -1.970234 -6.946628 5.879943 1.926951 -1.473466 -24.162530 0.625133 -0.542411 33.632442 3.684749 4.277140 -12.605963 0.000000 0.000000 0.000000 6.169621 1.340454 -10.339203 -2.775036 2.656454 26.895127 -1.245898 3.916862 -9.969511 0.000000 0.000000 0.000000 2.123113 -0.007937 -0.767978 -0.743542 0.354849 -4.292948 -0.261550 10.585744 6.769527 8.698750 -3.461842 -16.124322 0.000000 0.000000 0.000000 -7.805727 14.932202 -7.369224 -51.249079 20.755413 -15.072692 -50.591619 -35.655181 17.313678 0.000000 0.000000 0.000000 6.757172 -5.014389 -2.111722 65.848096 20.529008 6.212404 66.795852 79.878475 66.181118 0.000000 0.000000 0.000000 
-0.008797 0.955144 -0.066088 -4.549938 -6.083752 7.387063 2.574220 -1.244347 -20.589096 0.052055 -0.392615 33.246551 3.459837 5.270554 -7.624706 0.000000 0.000000 0.000000 8.519947 2.127099 -14.024354 0.167561 1.206848 21.987136 -0.294988 2.017458 -4.166794 0.000000 0.000000 0.000000 4.449299 -0.216947 0.918666 0.045953 0.030201 -4.259649 -0.679304 11.853128 6.569677 9.187892 -2.989812 -19.081242 0.000000 0.000000 0.000000 -8.501923 10.984733 -6.148967 -53.384808 19.233003 -15.247535 -52.805451 -40.857138 20.680355 0.000000 0.000000 0.000000 8.239625 -8.221458 -3.508685 63.786116 17.739615 4.570664 74.040829 71.658341 65.356285 0.000000 0.000000 0.000000 
-0.014191 0.978219 -0.127603 -3.420556 -7.660516 6.511447 -1.074332 -1.141665 -12.193386 1.061956 -0.637101 27.015171 3.209006 5.105317 -6.923126 0.000000 0.000000 0.000000 5.802380 2.377273 -16.680823 0.702646 0.860938 18.141837 0.115789 2.698776 -3.367754 0.000000 0.000000 0.000000 5.333564 -0.439365 3.337793 -0.219146 0.128964 -4.834628 -1.683090 10.707109 9.184512 8.648329 -2.358216 -22.463882 0.000000 0.000000 0.000000 -9.781181 9.776303 -5.848811 -55.433723 16.564460 -14.766757 -51.748475 -41.962549 21.512364 0.000000 0.000000 0.000000 9.772580 -3.773534 -1.694608 63.241380 15.036350 2.275349 59.916351 71.628644 52.116610 0.000000 0.000000 0.000000 
-0.017866 0.977877 -0.179823 -3.908365 -7.554893 7.786352 -1.735217 -0.736684 -7.339113 0.426278 -0.416413 21.433650 4.206835 8.147896 -4.678037 0.000000 0.000000 0.000000 4.554489 2.945500 -20.932923 0.263093 1.151787 20.786967 -0.740409 0.772720 -4.110773 0.000000 0.000000 0.000000 5.663579 -0.473406 3.195102 0.176431 -0.034189 -4.745081 -1.322227 8.602106 9.850547 4.459349 -0.086321 -24.556653 0.000000 0.000000 0.000000 -11.914871 9.149250 -5.880445 -55.695125 14.952641 -13.945570 -50.733116 -43.419882 22.485052 0.000000 0.000000 0.000000 11.271575 -1.619708 -0.999794 63.502811 13.038097 0.815573 56.372630 66.507378 44.100752 0.000000 0.000000 0.000000 
-0.021194 0.965828 -0.221475 -3.813671 -6.766479 7.441463 -1.994315 -0.295440 -3.010651 -0.839903 -0.082771 15.716119 3.378461 6.100674 -4.932327 0.000000 0.000000 0.000000 3.805801 2.893095 -21.300580 -0.389741 1.659672 25.323485 -0.999337 2.206854 -7.124963 0.000000 0.000000 0.000000 5.399661 -0.471706 3.423229 0.085724 0.009022 -4.477575 -0.826179 8.173946 9.713742 5.058283 -0.425749 -24.428271 0.000000 0.000000 0.000000 -9.181547 6.052255 -3.892448 -60.121319 13.311996 -14.581295 -46.992301 -44.595245 21.437422 0.000000 0.000000 0.000000 12.824198 -3.848559 -2.178997 64.369112 9.177737 -1.331755 44.185226 59.256069 30.244425 0.000000 0.000000 0.000000 
-0.022958 0.950155 -0.253889 -3.209763 -4.736840 7.152532 -2.227253 -0.102957 -1.335982 -0.878451 -0.119635 12.807826 1.861490 1.478844 -7.008519 0.000000 0.000000 0.000000 2.428088 2.599754 -20.972465 -1.781118 2.406950 30.130673 -0.363770 3.485448 -6.550451 0.000000 0.000000 0.000000 6.020821 -0.497690 3.341724 -0.936282 0.465230 -5.383982 -1.528284 4.879634 10.647348 4.522683 -0.807152 -21.177695 0.000000 0.000000 0.000000 -9.564705 7.091212 -4.169483 -61.752733 9.574632 -13.030159 -43.547571 -46.458764 21.393913 0.000000 0.000000 0.000000 13.910130 -2.787760 -2.076954 63.836484 4.197599 -4.375604 31.742955 50.772431 18.023058 0.000000 0.000000 0.000000 
-0.023806 0.939004 -0.278646 -2.027180 -2.029899 5.592589 -3.120289 0.010249 -0.518912 0.625705 -0.471411 10.995877 1.743486 0.912437 -6.878705 0.000000 0.000000 0.000000 0.861458 2.078772 -19.050429 -3.380351 2.926195 32.081507 -2.640530 -3.205329 -7.725576 0.000000 0.000000 0.000000 4.593907 -0.406420 3.475975 -0.205699 0.145288 -2.460698 -1.997439 3.309684 9.393793 5.089154 -0.860743 -23.160883 0.000000 0.000000 0.000000 -11.223489 6.391427 -4.189353 -62.065343 7.759026 -12.091153 -42.927145 -52.205428 23.932424 0.000000 0.000000 0.000000 16.150310 -5.301078 -3.586058 60.932577 -2.394658 -7.516076 28.550105 43.909230 13.709096 0.000000 0.000000 0.000000 
-0.023546 0.935314 -0.297681 -0.809293 0.182695 3.714917 -4.996542 -0.116994 -1.683409 1.705800 -0.856311 13.371645 1.784054 -0.296612 -8.834972 0.000000 0.000000 0.000000 -0.750806 1.721210 -18.126390 -2.746062 2.830372 37.776775 -3.245417 -5.114667 -8.279628 0.000000 0.000000 0.000000 2.827256 -0.357585 4.513380 0.471774 -0.159365 -1.962442 -1.941000 1.265651 10.231549 5.027088 -1.063132 -22.317401 0.000000 0.000000 0.000000 -13.944080 5.477473 -4.106352 -60.659259 2.862490 -9.326052 -39.981783 -57.887309 25.485302 0.000000 0.000000 0.000000 15.915684 -5.859483 -3.995222 58.271736 -8.098271 -10.002120 28.279302 37.375648 11.102385 0.000000 0.000000 0.000000 
-0.023688 0.936276 -0.311107 0.295916 2.670964 3.407567 -5.777781 -0.219536 -2.539880 1.864400 -0.934456 13.189300 1.206656 -1.414150 -7.597851 0.000000 0.000000 0.000000 -2.242023 1.576844 -19.755169 -2.206622 2.499114 44.108923 -4.362343 -9.258402 -7.026831 0.000000 0.000000 0.000000 2.502926 -0.314779 4.173222 0.900245 -0.319649 -2.450254 -2.435887 -0.593852 11.545646 3.360177 -0.178303 -22.836815 0.000000 0.000000 0.000000 -15.650937 4.353611 -3.717694 -60.576616 -1.971042 -6.961306 -36.615192 -61.802271 25.637011 0.000000 0.000000 0.000000 13.550696 -7.289264 -4.443191 58.785404 -13.387818 -12.702764 26.865221 31.947281 8.814128 0.000000 0.000000 0.000000 
-0.025788 0.939166 -0.320455 1.007295 4.381902 3.462591 -6.015339 -0.438824 -4.138516 1.506686 -0.944609 14.035924 0.976745 -1.805304 -6.971670 0.000000 0.000000 0.000000 -3.318208 1.417581 -20.957894 -1.198054 1.651294 46.690026 -4.823502 -11.112582 -5.346810 0.000000 0.000000 0.000000 3.627000 -0.355976 3.839829 0.031089 0.141201 -3.970310 -2.996993 -3.533104 13.543686 3.151259 -0.306056 -23.480667 0.000000 0.000000 0.000000 -16.148243 3.243618 -2.772602 -60.557753 -5.828645 -5.161649 -39.390001 -67.076684 31.312083 0.000000 0.000000 0.000000 11.802783 -8.054243 -4.783304 59.319064 -17.763574 -15.244804 25.903525 29.618977 7.654889 0.000000 0.000000 0.000000 
-0.030476 0.944162 -0.325868 0.830554 4.329057 3.287878 -5.462173 -0.423709 -4.072041 1.187158 -0.783700 12.604764 0.237971 -3.100695 -6.146231 0.000000 0.000000 0.000000 -2.221566 1.561088 -20.351167 -0.765371 1.361386 43.371147 -4.125566 -9.312580 -4.695748 0.000000 0.000000 0.000000 5.058581 -0.488686 4.443137 0.473418 -0.052988 -3.936534 -4.307200 -3.271293 12.125704 2.527317 0.002191 -22.094600 0.000000 0.000000 0.000000 -14.764286 0.642100 -1.449293 -61.419680 -8.024067 -3.902689 -48.017553 -70.149924 39.396292 0.000000 0.000000 0.000000 9.787910 -9.887000 -5.222672 59.402702 -22.287502 -17.273134 29.596333 28.254634 8.183159 0.000000 0.000000 0.000000 
